<svg id="Layer_1" data-name="Layer 1" xmlns="http://www.w3.org/2000/svg" viewBox="0 0 4174.57 4174.57"><defs><style>.cls-1{fill:#fff;}.cls-2{fill:#edbfc4;}.cls-3{fill:#91d3e4;}.cls-4{fill:#231f20;}.cls-5{fill:#9fcc51;}.cls-6{fill:#96a848;}</style></defs><rect class="cls-1" width="4174.57" height="4174.57"/><path d="M1056.31,2992.37l37.33-31.44V2598.3l-37.33-31.44v-5.61H1358l-32.28,86.45h-5.33a151.43,151.43,0,0,0-119.25-58.1h-25v183.56l139.5-19.65-18,48H1176.16v168.12h0a315.06,315.06,0,0,0,179.07-55.83l4.5-3.11h5.61L1354.67,2998H1056.31Z"/><path d="M1410.25,2992.37l37.61-30.6V2598.3l-37.33-31.44v-5.61H1568v5.61l-37.61,31.44v363.47l37.33,30.6V2998H1410.25Z"/><path d="M1615.7,2992.37l37.33-30.6V2598.3l-37.33-31.44v-5.61h136.69q50.8,0,90.1,15.86t61.19,44.91q21.88,29,21.89,67.22,0,31.44-14.46,56.84a126.61,126.61,0,0,1-38.31,42,145.1,145.1,0,0,1-51.36,22.73h0a279,279,0,0,1,102.44,113.37l18.53,37.63,32.84,30.6V2998H1870.84l-93.47-178.79q-19.65,1.68-41.82,1.69v140.89l59.5,30.6V2998H1615.7Zm127.15-199.84q26.1,0,47.43-12.21t34-35.37q12.63-23.14,12.63-54.59,0-31.16-12.63-54t-34-34.8q-21.33-11.94-47.43-11.93h-7.3v202.93Z"/><path d="M2006.12,2992.37l37.33-31.44V2598.3l-37.33-31.44v-5.61h301.73l-32.28,86.45h-5.33A151.43,151.43,0,0,0,2151,2589.6h-25v183.56l139.5-19.65-18,48H2126v168.12h0A315,315,0,0,0,2305,2913.8l4.5-3.11h5.62L2304.48,2998H2006.12Z"/><path d="M2423.77,2673l-3.65-16.84v305.65l60.34,31.16V2998h-126v-5.61l37.33-30.6V2598.3l-37.33-31.44v-5.61h80.84l253.45,288.53V2598.3l-59.79-31.44v-5.61H2754.4v5.61l-37.33,31.44-2.19,408.1h-5.62Z"/><path d="M2802.12,2992.37l37.33-31.44V2598.3l-37.33-31.44v-5.61h301.73l-32.28,86.45h-5.33A151.43,151.43,0,0,0,2947,2589.6h-25v183.56l139.49-19.65-18,48H2922v168.12h0A315,315,0,0,0,3101,2913.8l4.5-3.11h5.61L3100.48,2998H2802.12Z"/><path d="M3147.63,2944.09l53.89-53.89,53.61,53.89L3201.52,2998Z"/><path class="cls-2" d="M2072,1165.13c-56.41,73.9-171.94,225.93-252.29,336.2-.9,1.23-22.25,30.58-48.1,71.88-39.8,63.59-68.56,109.53-82.32,171.44a352.84,352.84,0,0,0-8.2,82c3.35,219,181.7,397.47,397.59,397.81h.59c246.5,0,391.16-235.28,396.95-398.09h0c4-111.51-76.3-228.7-134.9-314.27l-9.55-14c-5.43-8-15.53-22.77-92.56-121.54C2183.63,1305.39,2127.43,1234.31,2072,1165.13Z"/><circle class="cls-3" cx="1843.1" cy="1847.6" r="189.88"/><path class="cls-4" d="M2004.86,1923.48a17.61,17.61,0,0,0-.55,4.37,17.26,17.26,0,0,0,4.53,11.71c2.8,3.09,8,6.1,15.28,8.91,13.69,5.24,31.74,8.71,48.28,9.29,1.08,0,2,.06,3,.06a82.32,82.32,0,0,0,43.58-12.7,17.25,17.25,0,0,0,7.94-12.23,17.43,17.43,0,0,0-4.29-14.12l-.12-.14-.05-.05a17.5,17.5,0,0,0-22.08-2.94,48.2,48.2,0,0,1-25.18,7.36l-1.53,0a128,128,0,0,1-27.66-4.06,4.33,4.33,0,0,1-3.27-4.13l0-.12V1914l0-.22s0-.09,0-.14a325.81,325.81,0,0,0,5.79-70.31c-1.85-59.31-20.79-107.36-56.29-143-35.35-35.47-81.1-56.72-128.81-59.83-4.18-.26-8.4-.4-12.56-.4-40.83,0-73.78,13.09-94.23,24.06-3,1.63-6.19,3.42-9.85,5.65a16.78,16.78,0,0,0-3.32,2.65,17.26,17.26,0,0,0-3.69,18.79c.21.49.43,1,.67,1.42v.29l1.18,1.7a17.49,17.49,0,0,0,23.37,4.84c18.35-11.21,48.12-24.56,85.81-24.56,3.44,0,6.92.11,10.36.33,39.27,2.56,77.06,20.18,106.39,49.62,67.73,68,43,177,37.36,198.17Z"/><path class="cls-4" d="M2178.61,1704c16.53-13.87,51.55-37.31,100.48-38.47,1.29,0,2.57,0,3.85,0,49.52,0,85.33,23.09,102.27,36.85a17.41,17.41,0,0,0,21.94-27c-20.56-16.67-64-44.63-124.16-44.63-1.56,0-3.15,0-4.73,0-59.47,1.41-102,29.83-122.05,46.64a17.41,17.41,0,0,0,22.4,26.65Z"/><path class="cls-4" d="M1984.22,1790.69h0a17.45,17.45,0,0,0-11.18,4.07c-16.53,13.88-51.56,37.32-100.48,38.48-1.3,0-2.59,0-3.87,0-49.56,0-85.34-23.08-102.26-36.84a17.41,17.41,0,0,0-22,27c20.56,16.67,64,44.64,124.22,44.64q2.33,0,4.68-.06c59.48-1.41,102-29.82,122.06-46.63a17.41,17.41,0,0,0-11.22-30.73Z"/><path class="cls-4" d="M2401.89,1790.69h0a17.46,17.46,0,0,0-11.19,4.07c-16.53,13.88-51.55,37.32-100.48,38.48-1.3,0-2.59,0-3.87,0-49.55,0-85.34-23.08-102.26-36.84a17.41,17.41,0,0,0-21.94,27c20.55,16.67,64,44.64,124.22,44.64,1.54,0,3.11,0,4.67-.06,59.48-1.41,102-29.82,122.06-46.63a17.41,17.41,0,0,0-11.21-30.73Z"/><path class="cls-4" d="M2125.33,2019.51h-.85l-.82.22a189.24,189.24,0,0,1-48.86,6.43q-2.93,0-5.94-.09a189.24,189.24,0,0,1-42.87-6.34l-.82-.22h-.85a17.41,17.41,0,0,0-.94,34.8,200.69,200.69,0,0,0,46.07,6.63c1.81,0,3.59.08,5.36.08a201.29,201.29,0,0,0,51.46-6.71,17.41,17.41,0,0,0-.94-34.8Z"/><path class="cls-4" d="M2097,2081.94h-44.43a17.41,17.41,0,1,0,0,34.82H2097a17.41,17.41,0,1,0,0-34.82Z"/><polygon class="cls-5" points="2066.75 1148.21 2028.52 1242.69 2024.19 1330.68 2042.8 1412.9 2057.37 1465.55 2076.84 1465.55 2102.81 1448.96 2124.44 1293.18 2083.33 1165.25 2066.75 1148.21"/><polygon class="cls-6" points="2072.79 1156.83 2064.4 1148.21 2026.18 1242.69 2021.85 1330.68 2040.45 1412.9 2055.03 1465.55 2072.79 1465.55 2072.79 1156.83"/><path class="cls-4" d="M2129.55,1257.54a359.9,359.9,0,0,0-49.66-127L2072,1118l-7.92,12.56a360.42,360.42,0,0,0-19.33,34.69,353.13,353.13,0,0,0-30.32,92.27c-16.82,92.6,6.67,170.39,29.35,219.38l.48,1,.64.91c1.76,2.49,11,14.39,27.1,15.75,16.12-1.36,25.35-13.26,27.11-15.75l.63-.91.49-1C2122.87,1427.93,2146.36,1350.14,2129.55,1257.54Zm-57.58,80a12.12,12.12,0,0,0-12.11,12.11v103.55c-19-46-35.78-113-21.58-191.33a330.29,330.29,0,0,1,33.69-96.64,330.29,330.29,0,0,1,33.69,96.64c14.21,78.31-2.55,145.38-21.58,191.33V1349.66A12.12,12.12,0,0,0,2072,1337.55Z"/><path class="cls-4" d="M2079.22,2254.39h-.61c-232.09-.35-423.84-192-427.43-427.22a381.93,381.93,0,0,1,8.9-89c14.88-66.93,44.78-114.7,86.17-180.82,26.4-42.19,48.36-72.37,49.28-73.63,86.52-118.73,213.64-285.65,264.28-351.91l11.58-15.16,12,14.88c59.41,74,119.78,150.24,179.43,226.71,77.61,99.52,88.06,114.85,93.68,123.08l9.51,13.91c61,89,144.43,210.89,140.12,332.24-3.36,94.42-47,199-116.67,279.83C2307.58,2202.17,2197.44,2254.39,2079.22,2254.39ZM2072,1165.13c-56.41,73.9-171.94,225.93-252.29,336.2-.9,1.23-22.25,30.58-48.1,71.88-39.8,63.59-68.56,109.53-82.32,171.44a352.84,352.84,0,0,0-8.2,82c3.35,219,181.7,397.47,397.59,397.81h.59c246.5,0,391.16-235.28,396.95-398.09h0c4-111.51-76.3-228.7-134.9-314.27l-9.55-14c-5.43-8-15.53-22.77-92.56-121.54C2183.63,1305.39,2127.43,1234.31,2072,1165.13Z"/></svg>